<svg width="44" height="44" viewBox="0 0 44 44" fill="none" xmlns="http://www.w3.org/2000/svg">
<path d="M19 28C19 28.7956 19.3161 29.5587 19.8787 30.1213C20.4413 30.6839 21.2044 31 22 31C22.7956 31 23.5587 30.6839 24.1213 30.1213C24.6839 29.5587 25 28.7956 25 28" stroke="#E1E1E1" stroke-opacity="0.8" stroke-width="2" stroke-linecap="round" stroke-linejoin="round"/>
<path d="M15.25 19.75C15.25 17.9598 15.9612 16.2429 17.227 14.977C18.4929 13.7112 20.2098 13 22 13C23.7902 13 25.5071 13.7112 26.773 14.977C28.0388 16.2429 28.75 17.9598 28.75 19.75C28.75 23.1081 29.5281 25.8063 30.1469 26.875C30.2126 26.9888 30.2472 27.1179 30.2474 27.2493C30.2475 27.3808 30.2131 27.5099 30.1475 27.6239C30.082 27.7378 29.9877 27.8325 29.8741 27.8985C29.7604 27.9645 29.6314 27.9995 29.5 28H14.5C14.3687 27.9992 14.24 27.964 14.1266 27.8978C14.0132 27.8317 13.9192 27.7369 13.8539 27.6231C13.7886 27.5092 13.7543 27.3801 13.7545 27.2489C13.7547 27.1176 13.7894 26.9887 13.855 26.875C14.4728 25.8063 15.25 23.1072 15.25 19.75Z" stroke="#E1E1E1" stroke-opacity="0.8" stroke-width="2" stroke-linecap="round" stroke-linejoin="round"/>
</svg>
