<svg width="18" height="18" viewBox="0 0 18 18" fill="none" xmlns="http://www.w3.org/2000/svg">
<path d="M9 11.25C10.2426 11.25 11.25 10.2426 11.25 9C11.25 7.75736 10.2426 6.75 9 6.75C7.75736 6.75 6.75 7.75736 6.75 9C6.75 10.2426 7.75736 11.25 9 11.25Z" stroke="#FBFBFB" stroke-linecap="round" stroke-linejoin="round"/>
<path d="M16.875 4.5H1.125V13.5H16.875V4.5Z" stroke="#FBFBFB" stroke-linecap="round" stroke-linejoin="round"/>
<path d="M16.875 7.3125C16.1724 7.19341 15.5242 6.85871 15.0202 6.35478C14.5163 5.85085 14.1816 5.20264 14.0625 4.5" stroke="#FBFBFB" stroke-linecap="round" stroke-linejoin="round"/>
<path d="M14.0625 13.5C14.1816 12.7974 14.5163 12.1492 15.0202 11.6452C15.5242 11.1413 16.1724 10.8066 16.875 10.6875" stroke="#FBFBFB" stroke-linecap="round" stroke-linejoin="round"/>
<path d="M1.125 10.6875C1.82764 10.8066 2.47585 11.1413 2.97978 11.6452C3.48371 12.1492 3.81841 12.7974 3.9375 13.5" stroke="#FBFBFB" stroke-linecap="round" stroke-linejoin="round"/>
<path d="M3.9375 4.5C3.81841 5.20264 3.48371 5.85085 2.97978 6.35478C2.47585 6.85871 1.82764 7.19341 1.125 7.3125" stroke="#FBFBFB" stroke-linecap="round" stroke-linejoin="round"/>
</svg>
