<svg width="25" height="25" viewBox="0 0 25 25" fill="none" xmlns="http://www.w3.org/2000/svg">
<path d="M5.375 17.25V6.75" stroke="#C3C3C3" stroke-opacity="0.64" stroke-width="2" stroke-linecap="round" stroke-linejoin="round"/>
<path d="M5.375 17.25V6.75" stroke="#CDCDCD" stroke-opacity="0.8" stroke-width="2" stroke-linecap="round" stroke-linejoin="round" style="mix-blend-mode:overlay"/>
<path d="M20.375 6.75V17.25" stroke="#C3C3C3" stroke-opacity="0.64" stroke-width="2" stroke-linecap="round" stroke-linejoin="round"/>
<path d="M20.375 6.75V17.25" stroke="#CDCDCD" stroke-opacity="0.8" stroke-width="2" stroke-linecap="round" stroke-linejoin="round" style="mix-blend-mode:overlay"/>
<path d="M9.875 12V13.5" stroke="#C3C3C3" stroke-opacity="0.64" stroke-width="2" stroke-linecap="round" stroke-linejoin="round"/>
<path d="M9.875 12V13.5" stroke="#CDCDCD" stroke-opacity="0.8" stroke-width="2" stroke-linecap="round" stroke-linejoin="round" style="mix-blend-mode:overlay"/>
<path d="M12.875 11.25V13.5" stroke="#C3C3C3" stroke-opacity="0.64" stroke-width="2" stroke-linecap="round" stroke-linejoin="round"/>
<path d="M12.875 11.25V13.5" stroke="#CDCDCD" stroke-opacity="0.8" stroke-width="2" stroke-linecap="round" stroke-linejoin="round" style="mix-blend-mode:overlay"/>
<path d="M15.875 10.5V13.5" stroke="#C3C3C3" stroke-opacity="0.64" stroke-width="2" stroke-linecap="round" stroke-linejoin="round"/>
<path d="M15.875 10.5V13.5" stroke="#CDCDCD" stroke-opacity="0.8" stroke-width="2" stroke-linecap="round" stroke-linejoin="round" style="mix-blend-mode:overlay"/>
<path d="M21.125 3.75H4.625C4.21079 3.75 3.875 4.08579 3.875 4.5V6C3.875 6.41421 4.21079 6.75 4.625 6.75H21.125C21.5392 6.75 21.875 6.41421 21.875 6V4.5C21.875 4.08579 21.5392 3.75 21.125 3.75Z" stroke="#C3C3C3" stroke-opacity="0.64" stroke-width="2" stroke-linecap="round" stroke-linejoin="round"/>
<path d="M21.125 3.75H4.625C4.21079 3.75 3.875 4.08579 3.875 4.5V6C3.875 6.41421 4.21079 6.75 4.625 6.75H21.125C21.5392 6.75 21.875 6.41421 21.875 6V4.5C21.875 4.08579 21.5392 3.75 21.125 3.75Z" stroke="#CDCDCD" stroke-opacity="0.8" stroke-width="2" stroke-linecap="round" stroke-linejoin="round" style="mix-blend-mode:overlay"/>
<path d="M12.875 17.25V20.25" stroke="#C3C3C3" stroke-opacity="0.64" stroke-width="2" stroke-linecap="round" stroke-linejoin="round"/>
<path d="M12.875 17.25V20.25" stroke="#CDCDCD" stroke-opacity="0.8" stroke-width="2" stroke-linecap="round" stroke-linejoin="round" style="mix-blend-mode:overlay"/>
<path d="M12.875 23.25C13.7034 23.25 14.375 22.5784 14.375 21.75C14.375 20.9216 13.7034 20.25 12.875 20.25C12.0466 20.25 11.375 20.9216 11.375 21.75C11.375 22.5784 12.0466 23.25 12.875 23.25Z" stroke="#C3C3C3" stroke-opacity="0.64" stroke-width="2" stroke-linecap="round" stroke-linejoin="round"/>
<path d="M12.875 23.25C13.7034 23.25 14.375 22.5784 14.375 21.75C14.375 20.9216 13.7034 20.25 12.875 20.25C12.0466 20.25 11.375 20.9216 11.375 21.75C11.375 22.5784 12.0466 23.25 12.875 23.25Z" stroke="#CDCDCD" stroke-opacity="0.8" stroke-width="2" stroke-linecap="round" stroke-linejoin="round" style="mix-blend-mode:overlay"/>
<path d="M3.875 17.25H21.875" stroke="#C3C3C3" stroke-opacity="0.64" stroke-width="2" stroke-linecap="round" stroke-linejoin="round"/>
<path d="M3.875 17.25H21.875" stroke="#CDCDCD" stroke-opacity="0.8" stroke-width="2" stroke-linecap="round" stroke-linejoin="round" style="mix-blend-mode:overlay"/>
</svg>
