<svg width="25" height="24" viewBox="0 0 25 24" fill="none" xmlns="http://www.w3.org/2000/svg">
<path d="M4.375 5.25V17.25C4.375 17.6478 4.53304 18.0294 4.81434 18.3107C5.09564 18.592 5.47718 18.75 5.875 18.75H20.875C21.0739 18.75 21.2647 18.671 21.4053 18.5303C21.546 18.3897 21.625 18.1989 21.625 18V7.5C21.625 7.30109 21.546 7.11032 21.4053 6.96967C21.2647 6.82902 21.0739 6.75 20.875 6.75H5.875C5.47718 6.75 5.09564 6.59196 4.81434 6.31066C4.53304 6.02936 4.375 5.64782 4.375 5.25ZM4.375 5.25C4.375 4.85218 4.53304 4.47064 4.81434 4.18934C5.09564 3.90804 5.47718 3.75 5.875 3.75H18.625" stroke="#C3C3C3" stroke-opacity="0.64" stroke-width="2" stroke-linecap="round" stroke-linejoin="round"/>
<path d="M4.375 5.25V17.25C4.375 17.6478 4.53304 18.0294 4.81434 18.3107C5.09564 18.592 5.47718 18.75 5.875 18.75H20.875C21.0739 18.75 21.2647 18.671 21.4053 18.5303C21.546 18.3897 21.625 18.1989 21.625 18V7.5C21.625 7.30109 21.546 7.11032 21.4053 6.96967C21.2647 6.82902 21.0739 6.75 20.875 6.75H5.875C5.47718 6.75 5.09564 6.59196 4.81434 6.31066C4.53304 6.02936 4.375 5.64782 4.375 5.25ZM4.375 5.25C4.375 4.85218 4.53304 4.47064 4.81434 4.18934C5.09564 3.90804 5.47718 3.75 5.875 3.75H18.625" stroke="#CDCDCD" stroke-opacity="0.8" stroke-width="2" stroke-linecap="round" stroke-linejoin="round" style="mix-blend-mode:overlay"/>
<path d="M17.5 13.5C18.1213 13.5 18.625 12.9963 18.625 12.375C18.625 11.7537 18.1213 11.25 17.5 11.25C16.8787 11.25 16.375 11.7537 16.375 12.375C16.375 12.9963 16.8787 13.5 17.5 13.5Z" fill="#D7D7D7" style="mix-blend-mode:overlay"/>
<path d="M17.5 11.3125C18.0868 11.3125 18.5625 11.7882 18.5625 12.375C18.5625 12.9618 18.0868 13.4375 17.5 13.4375C16.9132 13.4375 16.4375 12.9618 16.4375 12.375C16.4375 11.7882 16.9132 11.3125 17.5 11.3125Z" stroke="#C3C3C3" stroke-opacity="0.64" stroke-width="0.125"/>
<path d="M17.5 11.3125C18.0868 11.3125 18.5625 11.7882 18.5625 12.375C18.5625 12.9618 18.0868 13.4375 17.5 13.4375C16.9132 13.4375 16.4375 12.9618 16.4375 12.375C16.4375 11.7882 16.9132 11.3125 17.5 11.3125Z" stroke="#CDCDCD" stroke-opacity="0.8" stroke-width="0.125" style="mix-blend-mode:overlay"/>
</svg>
