<svg width="25" height="24" viewBox="0 0 25 24" fill="none" xmlns="http://www.w3.org/2000/svg">
<path d="M8.375 9H3.875V4.5" stroke="#C3C3C3" stroke-opacity="0.64" stroke-width="2" stroke-linecap="round" stroke-linejoin="round"/>
<path d="M8.375 9H3.875V4.5" stroke="#CDCDCD" stroke-opacity="0.8" stroke-width="2" stroke-linecap="round" stroke-linejoin="round" style="mix-blend-mode:overlay"/>
<path d="M3.875 9L6.52625 6.34875C8.06166 4.81341 10.1404 3.94527 12.3118 3.93264C14.4831 3.92 16.5718 4.76388 18.125 6.28125" stroke="#C3C3C3" stroke-opacity="0.64" stroke-width="2" stroke-linecap="round" stroke-linejoin="round"/>
<path d="M3.875 9L6.52625 6.34875C8.06166 4.81341 10.1404 3.94527 12.3118 3.93264C14.4831 3.92 16.5718 4.76388 18.125 6.28125" stroke="#CDCDCD" stroke-opacity="0.8" stroke-width="2" stroke-linecap="round" stroke-linejoin="round" style="mix-blend-mode:overlay"/>
<path d="M15.875 15H20.375V19.5" stroke="#C3C3C3" stroke-opacity="0.64" stroke-width="2" stroke-linecap="round" stroke-linejoin="round"/>
<path d="M15.875 15H20.375V19.5" stroke="#CDCDCD" stroke-opacity="0.8" stroke-width="2" stroke-linecap="round" stroke-linejoin="round" style="mix-blend-mode:overlay"/>
<path d="M20.375 15L17.7238 17.6512C16.1883 19.1866 14.1096 20.0547 11.9382 20.0674C9.76693 20.08 7.67817 19.2361 6.125 17.7187" stroke="#C3C3C3" stroke-opacity="0.64" stroke-width="2" stroke-linecap="round" stroke-linejoin="round"/>
<path d="M20.375 15L17.7238 17.6512C16.1883 19.1866 14.1096 20.0547 11.9382 20.0674C9.76693 20.08 7.67817 19.2361 6.125 17.7187" stroke="#CDCDCD" stroke-opacity="0.8" stroke-width="2" stroke-linecap="round" stroke-linejoin="round" style="mix-blend-mode:overlay"/>
</svg>
