<svg width="18" height="18" viewBox="0 0 18 18" fill="none" xmlns="http://www.w3.org/2000/svg">
<path d="M5.0625 3.375H6.1875" stroke="#6F6F6F" stroke-width="1.5" stroke-linecap="round" stroke-linejoin="round"/>
<path d="M5.0625 14.0625H6.1875" stroke="#6F6F6F" stroke-width="1.5" stroke-linecap="round" stroke-linejoin="round"/>
<path d="M7.875 3.375V1.6875" stroke="#6F6F6F" stroke-width="1.5" stroke-linecap="round" stroke-linejoin="round"/>
<path d="M10.125 3.375V1.6875" stroke="#6F6F6F" stroke-width="1.5" stroke-linecap="round" stroke-linejoin="round"/>
<path d="M7.875 15.75V14.0625" stroke="#6F6F6F" stroke-width="1.5" stroke-linecap="round" stroke-linejoin="round"/>
<path d="M10.125 15.75V14.0625" stroke="#6F6F6F" stroke-width="1.5" stroke-linecap="round" stroke-linejoin="round"/>
<path d="M6.1875 8.4375H11.25C11.9959 8.4375 12.7113 8.73382 13.2387 9.26126C13.7662 9.78871 14.0625 10.5041 14.0625 11.25C14.0625 11.9959 13.7662 12.7113 13.2387 13.2387C12.7113 13.7662 11.9959 14.0625 11.25 14.0625H6.1875V3.375H10.4062C11.0776 3.375 11.7214 3.64168 12.1961 4.11639C12.6708 4.59109 12.9375 5.23492 12.9375 5.90625C12.9375 6.57758 12.6708 7.22141 12.1961 7.69611C11.7214 8.17082 11.0776 8.4375 10.4062 8.4375" stroke="#6F6F6F" stroke-width="1.5" stroke-linecap="round" stroke-linejoin="round"/>
</svg>
